<?xml version="1.0" standalone="no"?>
<!DOCTYPE svg PUBLIC "-//W3C//DTD SVG 20010904//EN"
 "http://www.w3.org/TR/2001/REC-SVG-20010904/DTD/svg10.dtd">
<svg version="1.0" xmlns="http://www.w3.org/2000/svg"
 width="1280.000000pt" height="1280.000000pt" viewBox="0 0 1280.000000 1280.000000"
 preserveAspectRatio="xMidYMid meet">
<metadata>
Created by potrace 1.11, written by Peter Selinger 2001-2013
</metadata>
<g transform="translate(0.000000,1280.000000) scale(0.100000,-0.100000)"
fill="#000000" stroke="none">
<path d="M6088 12795 c-2 -2 -48 -6 -103 -9 -112 -7 -297 -24 -335 -30 -14 -3
-52 -7 -85 -11 -33 -3 -67 -7 -75 -10 -8 -2 -37 -6 -64 -10 -27 -3 -83 -12
-125 -20 -42 -8 -89 -17 -106 -20 -60 -10 -85 -15 -216 -45 -74 -17 -168 -40
-209 -51 -41 -12 -79 -22 -85 -23 -40 -10 -109 -30 -155 -45 -30 -10 -80 -26
-110 -35 -30 -10 -85 -28 -122 -42 -187 -67 -215 -78 -243 -89 -32 -14 -69
-27 -72 -26 -2 1 -19 -8 -38 -19 -20 -11 -40 -20 -44 -20 -22 0 -567 -263
-581 -280 -3 -3 -20 -12 -37 -19 -18 -8 -33 -17 -33 -22 0 -5 -5 -9 -12 -9
-16 0 -208 -116 -383 -233 -471 -313 -898 -686 -1270 -1111 -33 -38 -65 -74
-70 -80 -6 -6 -39 -47 -74 -91 -35 -44 -68 -81 -72 -83 -5 -2 -9 -10 -9 -17 0
-7 -4 -15 -8 -17 -14 -5 -172 -223 -279 -383 -98 -147 -196 -307 -267 -435
-53 -95 -240 -474 -271 -550 -15 -36 -35 -83 -45 -105 -9 -22 -32 -78 -49
-125 -18 -47 -36 -94 -42 -105 -11 -24 -118 -341 -122 -364 -2 -9 -15 -54 -29
-101 -27 -86 -66 -235 -74 -280 -3 -13 -14 -60 -24 -105 -15 -66 -30 -140 -55
-275 -2 -13 -6 -37 -21 -135 -3 -16 -7 -41 -9 -55 -2 -14 -7 -52 -11 -85 -3
-33 -8 -69 -10 -80 -2 -10 -6 -49 -10 -85 -3 -36 -7 -81 -10 -100 -26 -212
-25 -856 1 -1120 2 -19 6 -64 10 -100 7 -76 14 -132 31 -255 4 -27 8 -57 9
-65 1 -8 5 -31 9 -50 3 -19 8 -46 10 -60 4 -22 14 -79 21 -120 24 -123 79
-356 125 -525 28 -104 137 -438 159 -490 20 -45 54 -130 56 -140 8 -37 136
-325 216 -485 181 -361 395 -708 633 -1020 60 -80 115 -150 120 -156 6 -7 25
-29 43 -50 32 -40 37 -46 126 -149 157 -180 459 -480 622 -616 22 -19 51 -44
65 -56 14 -12 68 -56 120 -97 52 -42 100 -79 105 -84 149 -122 642 -444 800
-522 17 -8 32 -17 35 -21 3 -3 43 -24 90 -48 47 -23 92 -47 100 -51 43 -25
269 -128 407 -186 281 -117 751 -272 938 -310 28 -5 62 -13 83 -19 29 -7 216
-46 242 -50 14 -2 52 -9 85 -15 33 -7 69 -13 80 -15 11 -2 72 -10 135 -20 63
-9 126 -18 140 -20 14 -2 57 -7 95 -10 39 -4 86 -9 105 -11 217 -25 876 -25
1125 1 22 2 67 7 100 10 33 4 78 9 100 11 22 2 49 5 60 8 12 2 48 7 80 11 33
4 69 9 80 11 11 3 36 7 55 10 19 2 46 7 60 10 14 2 36 7 50 9 14 3 48 9 75 15
28 6 64 13 80 16 70 13 289 66 405 99 69 19 134 37 145 40 16 4 264 86 333
110 7 2 16 5 20 6 24 7 355 145 452 189 593 270 1186 663 1659 1098 122 113
327 319 416 417 39 43 75 83 80 89 6 6 35 40 64 76 30 36 57 67 60 70 8 7 161
204 233 300 154 208 368 554 495 799 41 80 78 151 82 156 16 21 156 347 207
480 30 77 58 147 63 155 5 9 12 31 16 50 4 19 11 41 16 50 15 28 128 402 144
475 1 6 7 28 13 50 6 22 14 55 17 74 3 19 8 37 10 41 4 6 29 122 39 183 3 15
7 35 10 45 3 9 8 33 10 52 3 20 7 47 10 60 3 14 8 41 11 60 2 19 7 49 10 65
10 62 15 91 20 148 4 32 8 67 10 79 3 11 7 53 10 92 4 39 8 87 11 106 19 171
26 780 10 975 -15 200 -43 445 -61 550 -13 77 -15 93 -19 115 -4 22 -14 79
-21 120 -22 116 -87 394 -106 455 -5 17 -18 64 -30 105 -23 87 -125 401 -144
445 -33 78 -55 139 -55 151 0 8 -4 14 -10 14 -5 0 -10 7 -10 15 0 36 -208 480
-331 705 -176 323 -493 782 -718 1040 -12 14 -46 52 -74 85 -160 184 -412 436
-592 590 -31 28 -67 58 -79 68 -11 11 -38 33 -59 50 -22 18 -49 40 -60 51
-109 93 -583 426 -651 458 -14 6 -26 14 -26 18 0 4 -8 10 -17 13 -10 4 -40 20
-68 37 -27 17 -59 35 -70 41 -11 5 -51 28 -90 50 -75 42 -410 210 -491 245
-27 12 -70 31 -96 43 -26 11 -50 21 -53 21 -3 0 -24 9 -48 19 -50 23 -279 108
-390 145 -159 53 -541 158 -626 172 -7 2 -34 7 -60 13 -62 14 -80 18 -231 46
-19 3 -46 8 -60 10 -52 8 -106 16 -130 20 -14 3 -47 7 -75 11 -94 10 -120 13
-155 18 -19 2 -71 7 -115 11 -44 3 -102 8 -130 11 -53 6 -742 13 -747 9z"/>
</g>
</svg>
